GRF
version=1
nRows=16
nColumns=28
inDegrees=no
endheader
time	plate1_ground_force_vx	plate1_ground_force_vy	plate1_ground_force_vz	plate1_ground_force_px	plate1_ground_force_py	plate1_ground_force_pz	plate1_ground_torque_x	plate1_ground_torque_y	plate1_ground_torque_z	plate2_ground_force_vx	plate2_ground_force_vy	plate2_ground_force_vz	plate2_ground_force_px	plate2_ground_force_py	plate2_ground_force_pz	plate2_ground_torque_x	plate2_ground_torque_y	plate2_ground_torque_z	plate3_ground_force_vx	plate3_ground_force_vy	plate3_ground_force_vz	plate3_ground_force_px	plate3_ground_force_py	plate3_ground_force_pz	plate3_ground_torque_x	plate3_ground_torque_y	plate3_ground_torque_z
      0.00000000	     55.80992132	    649.31716754	      2.62700165	      0.09123125	      0.00000000	      0.08426246	      0.00000000	     -2.23760951	     -0.00000000	      0.00000000	      0.00000000	      0.00000000	      0.00000000	      0.00000000	      0.00000000	      0.00000000	      0.00000000	      0.00000000	      0.00000000	      0.00000000	      0.00000000	      0.00000000	      0.00000000	      0.00000000	      0.00000000	      0.00000000	      0.00000000
      0.01000000	     64.74503417	    644.92330770	      3.34250077	      0.09208456	      0.00000000	      0.08441543	      0.00000000	     -1.88721422	     -0.00000000	      0.00000000	      0.00000000	      0.00000000	      0.00000000	      0.00000000	      0.00000000	      0.00000000	      0.00000000	      0.00000000	      0.00000000	      0.00000000	      0.00000000	      0.00000000	      0.00000000	      0.00000000	      0.00000000	      0.00000000	      0.00000000
      0.02000000	     73.40771121	    637.90493986	      4.02767410	      0.09298094	      0.00000000	      0.08456858	      0.00000000	     -1.52793252	      0.00000000	      0.00000000	      0.00000000	      0.00000000	      0.00000000	      0.00000000	      0.00000000	      0.00000000	      0.00000000	      0.00000000	      0.00000000	      0.00000000	      0.00000000	      0.00000000	      0.00000000	      0.00000000	      0.00000000	      0.00000000	      0.00000000
      0.03000000	     81.64339778	    627.58150827	      4.62009000	      0.09390022	      0.00000000	      0.08470224	     -0.00000000	     -1.16603607	      0.00000000	      0.00000000	      0.00000000	      0.00000000	      0.74384866	      0.00000000	      0.15646856	      0.00000000	      0.00000000	      0.00000000	      0.00000000	      0.00000000	      0.00000000	      0.00000000	      0.00000000	      0.00000000	      0.00000000	      0.00000000	      0.00000000
      0.04000000	     89.23402090	    613.18645171	      5.05067134	      0.09482168	      0.00000000	      0.08480052	     -0.00000000	     -0.80951843	      0.00000000	      0.00000000	      0.00000000	      0.00000000	      0.74384866	      0.00000000	      0.15646856	      0.00000000	      0.00000000	      0.00000000	      0.00000000	      0.00000000	      0.00000000	      0.00000000	      0.00000000	      0.00000000	      0.00000000	      0.00000000	      0.00000000
      0.05000000	     95.88834951	    593.89916694	      5.25338142	      0.09572928	      0.00000000	      0.08485098	     -0.00000000	     -0.46743757	      0.00000000	      0.00000000	      0.00000000	      0.00000000	      0.74384866	      0.00000000	      0.15646856	      0.00000000	      0.00000000	      0.00000000	      0.00000000	      0.00000000	      0.00000000	      0.00000000	      0.00000000	      0.00000000	      0.00000000	      0.00000000	      0.00000000
      0.06000000	    101.24058511	    568.90712771	      5.17814988	      0.09662232	      0.00000000	      0.08484426	     -0.00000000	     -0.14888330	      0.00000000	    -13.72433629	     89.56808192	      9.21588976	      0.73698659	      0.00000000	      0.14771965	      0.00000000	     -0.35439713	     -0.00000000	      0.00000000	      0.00000000	      0.00000000	      0.00000000	      0.00000000	      0.00000000	      0.00000000	      0.00000000	      0.00000000
      0.07000000	    104.86288572	    537.51069846	      4.80448247	      0.09753261	      0.00000000	      0.08477736	     -0.00000000	      0.13811314	      0.00000000	    -22.95819364	    134.27463620	     12.98108059	      0.72900885	      0.00000000	      0.13833176	      0.00000000	     -0.30177456	     -0.00000000	      0.00000000	      0.00000000	      0.00000000	      0.00000000	      0.00000000	      0.00000000	      0.00000000	      0.00000000	      0.00000000
      0.08000000	    106.29919455	    499.28088283	      4.15217914	      0.09854656	      0.00000000	      0.08466644	     -0.00000000	      0.38734894	      0.00000000	    -34.65876679	    184.50530583	     16.43968483	      0.72282704	      0.00000000	      0.13155356	      0.00000000	     -0.25117203	     -0.00000000	      0.00000000	      0.00000000	      0.00000000	      0.00000000	      0.00000000	      0.00000000	      0.00000000	      0.00000000	      0.00000000
      0.09000000	    105.12814949	    454.26544917	      3.28511613	      0.09982518	      0.00000000	      0.08457554	     -0.00000000	      0.59464250	      0.00000000	    -48.32640495	    237.54519101	     19.04977299	      0.71879287	      0.00000000	      0.12718721	      0.00000000	     -0.20848436	     -0.00000000	      0.00000000	      0.00000000	      0.00000000	      0.00000000	      0.00000000	      0.00000000	      0.00000000	      0.00000000	      0.00000000
      0.10000000	    101.05667279	    403.20279718	      2.30426634	      0.10160777	      0.00000000	      0.08466188	     -0.00000000	      0.75744481	      0.00000000	    -63.05485961	    290.52753200	     20.40337973	      0.71700270	      0.00000000	      0.12484683	     -0.00000000	     -0.17716708	     -0.00000000	      0.00000000	      0.00000000	      0.00000000	      0.00000000	      0.00000000	      0.00000000	      0.00000000	      0.00000000	      0.00000000
      0.11000000	     94.02912508	    347.65724421	      1.32865670	      0.10418100	      0.00000000	      0.08522539	     -0.00000000	      0.87421383	      0.00000000	    -77.66656552	    340.94056004	     20.35229629	      0.71724858	      0.00000000	      0.12402623	     -0.00000000	     -0.15802288	     -0.00000000	      0.00000000	      0.00000000	      0.00000000	      0.00000000	      0.00000000	      0.00000000	      0.00000000	      0.00000000	      0.00000000
      0.12000000	     84.31668694	    289.97589977	      0.46879755	      0.10780417	      0.00000000	      0.08673050	     -0.00000000	      0.94421906	      0.00000000	    -90.94968168	    386.98447449	     19.04419361	      0.71905887	      0.00000000	      0.12419086	     -0.00000000	     -0.15005097	     -0.00000000	      0.00000000	      0.00000000	      0.00000000	      0.00000000	      0.00000000	      0.00000000	      0.00000000	      0.00000000	      0.00000000
      0.13000000	     72.54431291	    233.01905424	     -0.19739641	      0.11260660	      0.00000000	      0.08975741	     -0.00000000	      0.96834533	      0.00000000	   -101.91399275	    427.67484125	     16.84224360	      0.72182159	      0.00000000	      0.12486791	     -0.00000000	     -0.15164392	     -0.00000000	      0.00000000	      0.00000000	      0.00000000	      0.00000000	      0.00000000	      0.00000000	      0.00000000	      0.00000000	      0.00000000
      0.14000000	     59.62789038	    179.71146069	     -0.63676274	      0.11850181	      0.00000000	      0.09485804	     -0.00000000	      0.95069243	      0.00000000	   -109.96735360	    462.71828362	     14.16967657	      0.72493910	      0.00000000	      0.12570773	     -0.00000000	     -0.16130443	     -0.00000000	      0.00000000	      0.00000000	      0.00000000	      0.00000000	      0.00000000	      0.00000000	      0.00000000	      0.00000000	      0.00000000
      0.15000000	     46.62618573	    132.54250327	     -0.85852076	      0.12516935	      0.00000000	      0.10234230	     -0.00000000	      0.89982436	     -0.00000000	   -114.95968001	    492.28064650	     11.36335918	      0.72795030	      0.00000000	      0.12650380	     -0.00000000	     -0.17768131	     -0.00000000	      0.00000000	      0.00000000	      0.00000000	      0.00000000	      0.00000000	      0.00000000	      0.00000000	      0.00000000	      0.00000000
